<?xml version="1.0" encoding="UTF-8"?>
<!DOCTYPE svg PUBLIC "-//W3C//DTD SVG 1.1//EN" "http://www.w3.org/Graphics/SVG/1.1/DTD/svg11.dtd">
<!-- Creator: CorelDRAW -->
<svg xmlns="http://www.w3.org/2000/svg" xml:space="preserve" width="27.435mm" height="27mm" version="1.1" style="shape-rendering:geometricPrecision; text-rendering:geometricPrecision; image-rendering:optimizeQuality; fill-rule:evenodd; clip-rule:evenodd"
viewBox="0 0 2743.5 2700"
 xmlns:xlink="http://www.w3.org/1999/xlink"
 xmlns:xodm="http://www.corel.com/coreldraw/odm/2003">
 <defs>
  <style type="text/css">
   <![CDATA[
    .fil0 {fill:#363434}
    .fil1 {fill:#C03439}
    .fil2 {fill:#FEFEFE}
   ]]>
  </style>
 </defs>
 <g id="Layer_x0020_1">
  <metadata id="CorelCorpID_0Corel-Layer"/>
  <path class="fil0" d="M1103.8 2537.52c1.14,-10.26 1.65,-18.91 2.64,-29.17l25.16 -232.97c3.73,-40.49 33.53,-116.36 -20.33,-150.37 -11.79,-7.47 -26.81,-9.24 -48.47,-9.87 -65.85,-1.88 -115.54,6.29 -133.51,26.07 -19.77,21.74 3.81,91.79 5.5,116.64l12.78 89.75c3.11,19.34 4.05,39 8.14,58.89 2.04,10.03 2.87,18.99 3.93,29.02 1.14,10.41 2.87,19.26 4.28,29.91 1.3,9.99 7.79,81.26 13.45,108.63 1.73,37.78 -4.17,134.13 82.83,99.62 25.28,-10.03 25.99,-42.54 27.92,-56.34 6.76,-27.01 11.99,-51.66 15.68,-79.81z"/>
  <g id="_1965463654624">
   <path class="fil1" d="M291.35 1365.99c68.8,183.55 127.77,315.06 276.53,437.79 51.54,42.5 78.71,62.04 143.02,91.25 137.76,62.58 242.1,81.61 400.69,74.69 247.71,-10.85 450.68,-173.25 585.33,-358.22l99.23 -159.85c8.72,-17.49 15.01,-23.66 23.58,-42.61 66.8,-147.86 91.02,-190.04 138.23,-351.23 32.43,-110.63 107.8,-402.05 70.76,-500.85 -15.64,-41.79 -56.57,60.7 -80.55,94.55 -172.9,244.25 -558.99,372.89 -849.09,389.91 -31.53,1.85 -58.97,2.4 -91.75,3.42 -34.76,1.06 -58.15,-2.48 -88.3,-4.21 -268.47,-15.41 -554.32,-164.44 -716.52,-407.99 -3.9,10.5 -2.72,7.35 -3.54,18.87l-1.06 151.24c0.63,53.66 5.66,122.81 12.07,177.69 13.48,115.74 33.1,256.72 81.37,385.55z"/>
   <path class="fil1" d="M290.25 475.74l18.56 49.42c13.99,37.34 80.32,99.89 107.44,106.26 -29.25,-78.08 -59.4,-154.89 -2.44,-234.82 181.63,-254.9 737.29,-224.48 963.57,-183.59 111.06,20.05 353.55,94.78 282.66,258.29 -74.73,172.23 -381.65,231.24 -543.66,243.58 -47.02,3.58 -246.37,14.16 -269.49,-47.53 -34.6,-92.26 231.75,-138.54 282.35,-134.02 -18.28,-25.63 -89.48,-43.52 -121.01,-49.49 -163.46,-31.06 -383.19,103 -338.68,221.77 46.54,124.19 234.26,157.99 347.37,164.87 219.48,13.33 641.43,-82.24 803.37,-273.03 61.68,-72.69 91.36,-157.37 55.27,-253.68 -67.74,-180.65 -379.53,-261.99 -564.66,-273.07 -199.71,-11.96 -396.67,-0.12 -596.61,40.61 -93.18,18.95 -173.06,47.64 -255.82,92.38 -34.79,18.83 -73.35,47.26 -97.14,70.65 -23.86,23.51 -49.89,56.65 -62.11,86.57 -10.97,26.85 -22.49,78.7 -8.97,114.83z"/>
  </g>
  <g id="_1965463655344">
   <path class="fil2" d="M741.84 1685.29c0,35.58 26.58,50.6 46.28,67.9 41.83,36.79 99.18,63.17 153,78.74 67.66,19.5 142.63,18.59 210.53,1.18l82.47 -31.69c30.2,-16.78 118.93,-68.13 118.93,-112.79 0,-44.81 -53.55,-77.29 -93.25,-39.51 -121.01,115.23 -305.11,116.06 -421.36,3.42 -49.81,-48.27 -96.6,1.06 -96.6,32.75z"/>
   <path class="fil2" d="M1027.3 1477.09c-26.5,6.17 -70.53,27.91 -70.53,67.15 0,30.5 21.46,53.74 57.12,53.74 21.07,0 58.15,-22.45 76.11,-31.34 24.22,-11.99 48.12,-24.92 48.12,-59.36l0 -211.54c0,-54.06 -65.85,-80.4 -101.43,-30.94 -16.23,22.56 -9.39,178.91 -9.39,212.29z"/>
   <path class="fil2" d="M741.84 1181.57c0,48.4 -12.3,130.95 53.75,130.95 66.32,0 57.08,-74.46 57.08,-117.54 0,-60.78 -59.36,-79.42 -93.25,-49.58 -6.69,5.9 -17.58,24.65 -17.58,36.17z"/>
   <path class="fil2" d="M1242.22 1194.98c0,36.09 -5.46,75.83 14.12,96.71 42.93,45.84 96.71,9.43 96.71,-36.25 0,-44.23 11.48,-124.27 -53.74,-124.27 -35.15,0 -57.09,27.83 -57.09,63.81z"/>
  </g>
  <path class="fil1" d="M1399.71 2221.05c7.31,-3.3 30.78,-31.61 39.55,-40.41 169.17,-170.58 421.2,-176.4 646.35,-141.06 66.79,10.5 179.03,41.01 240.2,64.04 11.99,4.49 46.67,18.83 57.52,19.54 -1.14,11.91 -3.54,11.09 -11.44,19.3l-46.43 54.73c-21.03,23.27 -42.42,46.78 -65.38,68.68 -70.49,67.15 -145.46,134.29 -232.54,179.86 -32.31,16.9 -60.54,32.08 -98.63,44.81 -86.53,28.94 -382.48,80.56 -427.85,-27.36 -15.45,-36.76 2.64,-70.64 19.82,-94.66 18.75,-26.23 44.42,-44.31 75.04,-61.73 121.44,-69.03 288.01,-101.38 466.1,-130.71l-71.59 -3.82c-25.87,-0.07 -48.78,0.36 -75.79,2.17 -111.3,7.47 -206.32,24.17 -311.13,63.53 -139.13,52.2 -315.96,185.83 -149.15,328.85 120.06,102.92 345.95,74.78 478.09,17.06 10.96,-4.79 22.37,-8.84 31.56,-13.13 102.38,-47.6 117.55,-62.15 203.53,-115.38l76.7 -55.04c83.23,-61.01 260.33,-236.98 325.67,-253.41 -10.18,-10.89 -50.01,-29.61 -66.24,-38.1 -66.36,-34.71 -144.87,-68.87 -214.1,-96.59 -57.64,-23.08 -165.9,-58.3 -232.89,-70.41 -29.8,-5.35 -55.08,-10.73 -86.14,-14.15 -193.07,-21.04 -361.13,9.75 -494.21,158.55 -23.78,26.57 -73.59,103.63 -76.62,134.84z"/>
 </g>
</svg>
