<?xml version="1.0" encoding="UTF-8"?>
<!DOCTYPE svg PUBLIC "-//W3C//DTD SVG 1.1//EN" "http://www.w3.org/Graphics/SVG/1.1/DTD/svg11.dtd">
<!-- Creator: CorelDRAW -->
<svg xmlns="http://www.w3.org/2000/svg" xml:space="preserve" width="27.435mm" height="19.7688mm" version="1.1" style="shape-rendering:geometricPrecision; text-rendering:geometricPrecision; image-rendering:optimizeQuality; fill-rule:evenodd; clip-rule:evenodd"
viewBox="0 0 2743.5 1976.88"
 xmlns:xlink="http://www.w3.org/1999/xlink"
 xmlns:xodm="http://www.corel.com/coreldraw/odm/2003">
 <defs>
  <style type="text/css">
   <![CDATA[
    .fil0 {fill:none}
    .fil2 {fill:#FEFEFE}
    .fil3 {fill:#FEFEFE}
    .fil1 {fill:#30426D}
    .fil4 {fill:#C03439}
    .fil5 {fill:#FEFEFE;fill-rule:nonzero}
   ]]>
  </style>
 </defs>
 <g id="Layer_x0020_1">
  <metadata id="CorelCorpID_0Corel-Layer"/>
  <rect class="fil0" x="-8.31" y="2.12" width="2743.48" height="1976.93"/>
  <g id="_1966256540064">
   <path class="fil1" d="M861.06 1423.63c0,-13.09 9.22,-25.42 19.23,-33.05 13.47,-10.27 24.5,-8.41 40.41,-8.34 26.6,0.12 53.21,0.12 79.81,0.09 20.81,-0.02 44.66,-4.79 63.55,-13.61 19.79,-9.24 28.87,-15.64 44.21,-30.99 54.08,-54.08 44.96,-119.83 44.51,-189.84 -0.1,-16.26 -1.36,-26.44 9.59,-39.7 28,-33.92 82.3,-14.25 82.3,23.7 0,67.01 8.05,143.99 -23.02,205.61 -13.24,26.25 -26.41,45.61 -47.2,66.4 -82.91,82.9 -164.87,70.23 -272.02,70.23 -26.78,0 -41.37,-26.3 -41.37,-50.5zm0 -875.22c0,-19.48 21.89,-41.38 41.37,-41.38 107.09,0 189.16,-12.64 272.02,70.22 82.89,82.91 70.22,164.88 70.22,272.02 0,38.45 -55.97,58.3 -83.55,22.14 -10.27,-13.47 -8.4,-24.5 -8.33,-40.41 0.12,-26.6 0.11,-53.21 0.08,-79.81 -0.07,-61.32 -34.48,-114.28 -90.25,-139.43 -40.5,-18.26 -99.94,-13.13 -144.19,-12.84 -35.4,0.23 -57.37,-11.98 -57.37,-50.51zm-616.02 855.4c-82.9,-82.91 -70.22,-164.86 -70.22,-272.01 0,-38.45 55.96,-58.31 83.54,-22.15 29.59,38.79 -27.08,148.06 52.85,227.99 54.08,54.09 119.83,44.95 189.84,44.5 16.26,-0.1 26.44,-1.36 39.7,9.59 33.92,28 14.25,82.3 -23.7,82.3 -67.02,0 -143.98,8.05 -205.61,-23.02 -26.25,-13.23 -45.6,-26.41 -66.4,-47.2zm-70.22 -666.32c0,-58.7 29.19,-119.3 70.22,-160.33 82.9,-82.89 164.87,-70.22 272.01,-70.22 38.45,0 58.31,55.97 22.15,83.55 -13.47,10.28 -24.51,8.4 -40.42,8.33 -26.6,-0.11 -53.2,-0.11 -79.8,-0.08 -19.62,0.02 -45.91,5.32 -63.57,13.59 -55.1,25.79 -88.73,77.72 -88.8,138.77 -0.03,27.36 -0.08,54.72 0.1,82.08 0.11,16.26 1.35,26.43 -9.59,39.69 -28,33.92 -82.3,14.25 -82.3,-23.7l0 -111.68z"/>
  </g>
  <g id="_1966256538096">
   <g>
    <path class="fil2" d="M870.53 1423.63c0,25.22 15.37,41.03 31.9,41.03 105.6,0 185.14,12.73 265.32,-67.46 20.03,-20.02 32.04,-37.39 45.44,-63.96 29.84,-59.19 22.01,-135.13 22.01,-201.35 0,-25.18 -40.6,-47.87 -65.53,-17.67 -8.32,10.08 -7.53,16.33 -7.42,33.61 0.49,75.59 9.01,140.31 -47.28,196.6 -16.1,16.1 -24.77,22.54 -46.9,32.87 -17.65,8.24 -42.76,14.47 -67.55,14.5 -26.6,0.03 -53.26,0.03 -79.86,-0.09 -17.06,-0.07 -24.23,-1.53 -34.63,6.4 -6.52,4.97 -15.5,14.87 -15.5,25.52z"/>
    <path class="fil2" d="M870.53 548.41c0,33.51 18.37,41.23 47.84,41.04 49.71,-0.32 106.45,-5.11 148.14,13.68 58.01,26.16 95.76,81.75 95.83,148.05 0.03,26.6 0.03,53.26 -0.08,79.86 -0.08,17.06 -1.54,24.23 6.39,34.63 24.36,31.93 66.55,9.39 66.55,-16.4 0,-105.6 12.73,-185.13 -67.45,-265.32 -80.16,-80.16 -159.82,-67.45 -265.32,-67.45 -14.23,0 -31.9,17.68 -31.9,31.91z"/>
   </g>
   <g>
    <path class="fil2" d="M184.29 1131.8c0,105.6 -12.74,185.13 67.45,265.31 20.02,20.03 37.39,32.04 63.96,45.44 59.2,29.84 135.13,22.01 201.35,22.01 25.18,0 47.87,-40.6 17.67,-65.53 -10.08,-8.32 -16.33,-7.53 -33.61,-7.42 -75.59,0.49 -140.31,9.02 -196.6,-47.27 -81.84,-81.85 -29.06,-196.67 -53.68,-228.95 -24.35,-31.93 -66.54,-9.38 -66.54,16.41z"/>
    <path class="fil2" d="M184.29 737.49l0 111.68c0,25.18 40.6,47.87 65.53,17.67 8.32,-10.08 7.53,-16.33 7.42,-33.6 -0.18,-27.35 -0.13,-54.8 -0.1,-82.15 0.08,-65.89 36.9,-120.49 94.26,-147.34 16.48,-7.71 44.25,-14.46 67.57,-14.48 26.59,-0.04 53.26,-0.03 79.85,0.08 17.07,0.07 24.24,1.54 34.64,-6.39 31.93,-24.36 9.38,-66.55 -16.41,-66.55 -105.6,0 -185.13,-12.73 -265.31,67.45 -37.77,37.77 -67.45,95.72 -67.45,153.63z"/>
   </g>
  </g>
  <g id="_1966256536416">
   <path class="fil3" d="M649.99 1298.6c0.29,-2.61 0.42,-4.81 0.67,-7.42l6.4 -59.26c0.95,-10.3 8.53,-29.6 -5.17,-38.25 -3,-1.9 -6.82,-2.35 -12.33,-2.51 -16.75,-0.48 -29.39,1.6 -33.96,6.63 -5.03,5.53 0.97,23.35 1.4,29.67l3.25 22.83c0.79,4.92 1.03,9.92 2.07,14.98 0.52,2.55 0.73,4.83 1,7.38 0.29,2.65 0.73,4.9 1.09,7.61 0.33,2.54 1.98,20.67 3.42,27.63 0.44,9.61 -1.06,34.12 21.07,25.34 6.43,-2.55 6.61,-10.82 7.1,-14.33 1.72,-6.87 3.05,-13.14 3.99,-20.3z"/>
   <g>
    <path class="fil4" d="M443.33 1000.6c17.5,46.69 32.5,80.14 70.34,111.36 13.11,10.81 20.02,15.78 36.38,23.21 35.04,15.92 61.58,20.76 101.92,19 63.01,-2.76 114.64,-44.07 148.89,-91.12l25.24 -40.66c2.22,-4.45 3.82,-6.02 6,-10.84 16.99,-37.61 23.15,-48.34 35.16,-89.34 8.25,-28.14 27.42,-102.27 18,-127.4 -3.98,-10.63 -14.39,15.44 -20.49,24.05 -43.98,62.13 -142.19,94.85 -215.98,99.18 -8.02,0.47 -15,0.61 -23.34,0.87 -8.84,0.27 -14.79,-0.63 -22.46,-1.07 -68.29,-3.92 -141,-41.83 -182.26,-103.78 -0.99,2.67 -0.69,1.87 -0.9,4.8l-0.27 38.47c0.16,13.65 1.44,31.24 3.07,45.2 3.43,29.44 8.42,65.3 20.7,98.07z"/>
    <path class="fil4" d="M443.05 774.15l4.72 12.57c3.56,9.5 20.43,25.41 27.33,27.03 -7.44,-19.86 -15.11,-39.4 -0.62,-59.73 46.2,-64.84 187.54,-57.1 245.1,-46.7 28.25,5.1 89.93,24.11 71.9,65.7 -19.01,43.81 -97.08,58.82 -138.29,61.96 -11.96,0.91 -62.67,3.6 -68.55,-12.09 -8.8,-23.47 58.95,-35.24 71.82,-34.09 -4.65,-6.52 -22.76,-11.07 -30.78,-12.59 -41.58,-7.9 -97.47,26.2 -86.15,56.41 11.84,31.59 59.59,40.19 88.36,41.94 55.83,3.39 163.16,-20.92 204.35,-69.45 15.69,-18.49 23.24,-40.03 14.06,-64.53 -17.23,-45.95 -96.54,-66.64 -143.63,-69.46 -50.8,-3.04 -100.9,-0.03 -151.76,10.33 -23.7,4.82 -44.02,12.12 -65.07,23.5 -8.85,4.79 -18.66,12.02 -24.71,17.97 -6.07,5.98 -12.69,14.41 -15.8,22.02 -2.79,6.83 -5.72,20.02 -2.28,29.21z"/>
   </g>
   <g>
    <path class="fil2" d="M557.92 1081.82c0,9.05 6.76,12.87 11.77,17.27 10.64,9.36 25.23,16.07 38.92,20.03 17.21,4.96 36.28,4.73 53.55,0.3l20.98 -8.06c7.68,-4.27 30.25,-17.33 30.25,-28.69 0,-11.4 -13.62,-19.66 -23.72,-10.05 -30.78,29.31 -77.61,29.52 -107.18,0.87 -12.67,-12.28 -24.57,0.27 -24.57,8.33z"/>
    <path class="fil2" d="M630.53 1028.86c-6.74,1.57 -17.94,7.1 -17.94,17.08 0,7.76 5.46,13.67 14.53,13.67 5.36,0 14.79,-5.71 19.36,-7.97 6.16,-3.05 12.24,-6.34 12.24,-15.1l0 -53.81c0,-13.75 -16.75,-20.45 -25.8,-7.87 -4.13,5.74 -2.39,45.51 -2.39,54z"/>
    <path class="fil2" d="M557.92 953.69c0,12.31 -3.13,33.31 13.67,33.31 16.87,0 14.52,-18.94 14.52,-29.9 0,-15.46 -15.1,-20.2 -23.72,-12.61 -1.7,1.5 -4.47,6.27 -4.47,9.2z"/>
    <path class="fil2" d="M685.2 957.1c0,9.18 -1.39,19.29 3.59,24.6 10.92,11.66 24.6,2.4 24.6,-9.22 0,-11.25 2.92,-31.61 -13.67,-31.61 -8.94,0 -14.52,7.08 -14.52,16.23z"/>
   </g>
   <path class="fil4" d="M725.26 1218.1c1.86,-0.84 7.83,-8.04 10.06,-10.28 43.03,-43.39 107.14,-44.87 164.41,-35.88 16.99,2.67 45.54,10.43 61.1,16.29 3.05,1.14 11.87,4.79 14.63,4.97 -0.29,3.03 -0.9,2.82 -2.91,4.91l-11.81 13.92c-5.35,5.92 -10.79,11.9 -16.63,17.47 -17.93,17.08 -37,34.16 -59.15,45.75 -8.22,4.3 -15.4,8.16 -25.09,11.4 -22.01,7.36 -97.29,20.49 -108.83,-6.96 -3.93,-9.35 0.67,-17.97 5.04,-24.08 4.77,-6.67 11.3,-11.27 19.09,-15.7 30.89,-17.56 73.26,-25.79 118.56,-33.25l-18.21 -0.97c-6.58,-0.02 -12.41,0.09 -19.28,0.55 -28.31,1.9 -52.48,6.15 -79.14,16.16 -35.39,13.28 -80.37,47.27 -37.94,83.65 30.54,26.18 88,19.02 121.61,4.34 2.79,-1.22 5.69,-2.25 8.03,-3.34 26.04,-12.11 29.9,-15.81 51.77,-29.35l19.51 -14c21.17,-15.52 66.22,-60.28 82.84,-64.46 -2.59,-2.77 -12.72,-7.53 -16.85,-9.69 -16.88,-8.83 -36.85,-17.52 -54.46,-24.57 -14.66,-5.87 -42.2,-14.83 -59.24,-17.91 -7.58,-1.36 -14.01,-2.73 -21.91,-3.6 -49.11,-5.35 -91.86,2.48 -125.71,40.33 -6.05,6.76 -18.72,26.36 -19.49,34.3z"/>
  </g>
  <path class="fil5" d="M1424.8 768.79l46.1 0 84.33 203.53 -42.98 0 -20.77 -49.26 -87.03 0 -20.3 49.26 -43.26 0 83.91 -203.53zm-13.64 125.35l73.94 0 -37.11 -90.71 -36.83 90.71zm157.99 -125.35l115.67 0c9.92,0 17.88,0.56 23.89,1.67 5.96,1.17 11.13,2.84 15.41,5.13 6.33,3.81 11.74,9.82 16.16,18.02 4.42,8.19 6.61,16.95 6.61,26.31 0,5.16 -0.74,10.19 -2.23,14.99 -1.54,4.84 -3.31,9.31 -5.36,13.46 -2.05,4.14 -4.56,7.77 -7.54,10.89 -3.03,3.17 -8.9,6.94 -17.6,11.41 21.83,11.36 32.73,27.99 32.73,49.78 0,11.83 -2.51,21.84 -7.5,29.94 -5.02,8.15 -11.54,14.02 -19.65,17.56 -7.73,2.88 -20.25,4.37 -37.53,4.37l-113.06 0 0 -203.53zm102.17 87.31c6.7,0 11.82,-0.42 15.27,-1.17 3.45,-0.79 6.89,-2.42 10.38,-4.84 3.36,-2.84 6.1,-6.43 8.15,-10.71 2.1,-4.33 3.17,-8.99 3.17,-14.02 0,-10.05 -3.77,-17.64 -11.32,-22.63 -3.3,-1.81 -6.56,-3.07 -9.91,-3.82 -3.31,-0.74 -8.25,-1.07 -14.81,-1.07l-66.82 0 0 58.26 65.89 0zm0 87.31c6.79,0 11.96,-0.38 15.46,-1.12 3.53,-0.75 6.93,-2.38 10.33,-4.89 3.45,-2.75 6.24,-6.29 8.38,-10.66 2.15,-4.38 3.22,-9.04 3.22,-14.07 0,-10.05 -3.82,-17.6 -11.46,-22.49 -3.21,-2.09 -6.52,-3.44 -9.96,-4.1 -3.49,-0.65 -8.48,-0.93 -15.04,-0.93l-66.82 0 0 58.26 65.89 0zm111.61 0l92.34 0c8.85,0 15.88,-0.47 21.14,-1.4 5.31,-0.89 9.5,-2.28 12.71,-4.1 8.34,-5.35 12.53,-13.18 12.53,-23.47 0,-5.82 -1.4,-11.08 -4.24,-15.78 -2.79,-4.75 -6.71,-8.43 -11.69,-11.09 -2.84,-1.35 -6.38,-2.37 -10.66,-3.12 -4.29,-0.74 -9.04,-1.11 -14.34,-1.11l-39.26 0c-12.38,0 -22.58,-1.03 -30.64,-3.03 -8.05,-2.05 -14.53,-5.35 -19.46,-9.92 -5.96,-4.98 -10.62,-11.31 -13.83,-18.9 -3.22,-7.59 -4.85,-15.74 -4.85,-24.5 0,-12.71 3.12,-24.02 9.41,-33.9 6.29,-9.82 14.48,-16.62 24.59,-20.25 2.14,-0.79 4.51,-1.49 6.98,-2.05 2.52,-0.51 5.5,-0.98 8.9,-1.26 3.4,-0.32 7.4,-0.56 12.01,-0.65 4.56,-0.09 9.96,-0.09 16.16,-0.09l100.53 0 0 29.05 -90.29 0c-10.2,0 -17.79,0.19 -22.81,0.61 -4.99,0.37 -8.99,1.4 -11.97,3.07 -8.29,4.61 -12.43,12.67 -12.43,24.12 0,10.67 3.95,18.44 11.87,23.33 3.45,2.38 7.45,3.87 12.06,4.52 4.61,0.65 11.04,0.93 19.32,0.93l34.09 0c15.18,0 27.19,1.26 35.95,3.77 8.8,2.52 15.92,6.71 21.46,12.62 4.29,4.38 7.78,10.48 10.53,18.35 2.75,7.87 4.1,16.3 4.1,25.28 0,10.67 -2.29,20.49 -6.85,29.57 -4.52,9.03 -10.57,15.88 -18.11,20.54 -2.38,1.53 -4.99,2.79 -7.78,3.72 -2.84,0.98 -6.33,1.72 -10.52,2.33 -4.19,0.61 -9.08,1.02 -14.72,1.3 -5.63,0.28 -12.38,0.42 -20.21,0.42l-102.02 0 0 -28.91zm368.56 -145.57l-54.44 0c-7.72,0 -14.38,0.19 -19.97,0.66 -5.59,0.46 -10.57,1.35 -15,2.65 -4.42,1.35 -8.14,3.17 -11.17,5.45 -3.07,2.33 -5.91,5.12 -8.52,8.43 -2,2.42 -3.54,4.75 -4.61,6.89 -1.03,2.14 -1.91,4.51 -2.56,7.22 -0.7,2.7 -1.26,5.77 -1.73,9.36 -0.46,3.53 -1.02,9.59 -1.77,18.11l119.77 0 0 28.92 -119.91 0c1.31,12.94 3.31,22.77 6.1,29.56 2.75,6.76 6.9,12.3 12.34,16.58 5.45,4.24 12.2,7.27 20.31,9.04 8.1,1.76 17.69,2.7 28.77,2.7l52.39 0 0 28.91 -54.44 0c-10.98,0 -20.72,-0.42 -29.14,-1.25 -8.48,-0.8 -15.84,-2.1 -22.08,-3.82 -6.19,-1.73 -11.64,-4.01 -16.2,-6.89 -4.61,-2.84 -8.94,-6.48 -13.04,-10.85 -8.66,-8.8 -15.27,-20.07 -19.84,-33.76 -4.61,-13.69 -6.89,-29.11 -6.89,-46.29 0,-37.02 11.5,-65.19 34.51,-84.47 3.54,-2.98 7.07,-5.59 10.61,-7.68 3.59,-2.14 7.5,-3.82 11.83,-5.08 4.33,-1.21 9.13,-2.09 14.39,-2.65 5.26,-0.56 11.45,-0.79 18.53,-0.79l71.76 0 0 29.05zm59.79 174.48l-34.09 0 0 -203.53 50.48 0 91.92 171.87 0 -171.87 33.99 0 0 203.53 -48.29 0 -94.01 -168.52 0 168.52zm176.53 -28.91l92.34 0c8.85,0 15.88,-0.47 21.14,-1.4 5.31,-0.89 9.5,-2.28 12.71,-4.1 8.34,-5.35 12.53,-13.18 12.53,-23.47 0,-5.82 -1.4,-11.08 -4.24,-15.78 -2.79,-4.75 -6.71,-8.43 -11.69,-11.09 -2.84,-1.35 -6.38,-2.37 -10.66,-3.12 -4.29,-0.74 -9.04,-1.11 -14.34,-1.11l-39.26 0c-12.38,0 -22.58,-1.03 -30.64,-3.03 -8.05,-2.05 -14.53,-5.35 -19.46,-9.92 -5.96,-4.98 -10.62,-11.31 -13.83,-18.9 -3.22,-7.59 -4.85,-15.74 -4.85,-24.5 0,-12.71 3.12,-24.02 9.41,-33.9 6.29,-9.82 14.48,-16.62 24.59,-20.25 2.14,-0.79 4.51,-1.49 6.98,-2.05 2.52,-0.51 5.5,-0.98 8.9,-1.26 3.4,-0.32 7.4,-0.56 12.01,-0.65 4.56,-0.09 9.96,-0.09 16.16,-0.09l100.53 0 0 29.05 -90.29 0c-10.2,0 -17.79,0.19 -22.81,0.61 -4.99,0.37 -8.99,1.4 -11.97,3.07 -8.29,4.61 -12.43,12.67 -12.43,24.12 0,10.67 3.95,18.44 11.87,23.33 3.45,2.38 7.45,3.87 12.06,4.52 4.61,0.65 11.04,0.93 19.32,0.93l34.09 0c15.18,0 27.19,1.26 35.95,3.77 8.8,2.52 15.92,6.71 21.46,12.62 4.29,4.38 7.78,10.48 10.53,18.35 2.75,7.87 4.1,16.3 4.1,25.28 0,10.67 -2.29,20.49 -6.85,29.57 -4.52,9.03 -10.57,15.88 -18.11,20.54 -2.38,1.53 -4.99,2.79 -7.78,3.72 -2.84,0.98 -6.33,1.72 -10.52,2.33 -4.19,0.61 -9.08,1.02 -14.72,1.3 -5.63,0.28 -12.38,0.42 -20.21,0.42l-102.02 0 0 -28.91zm206.09 -174.62l36.28 0 0 203.53 -36.28 0 0 -203.53z"/>
  <path class="fil5" d="M1356.49 1166.96l-19.08 0 0 -107.07 52.25 0c8.38,0 15.04,0.47 20.06,1.42 5,0.96 9.06,2.55 12.22,4.73 3.55,2.5 6.32,5.71 8.33,9.63 2.01,3.92 3.01,8.28 3.01,13.05 0,15.8 -8.96,26.75 -26.92,32.88 10.93,3.01 17.86,6.83 20.82,11.43 2.97,4.63 4.63,11.15 5.03,19.58 0.29,2.57 0.51,4.72 0.63,6.49 0.15,1.74 0.44,4.09 0.88,7.05 0.42,2.97 -1.12,-1.69 -4.62,-14.01 -3.53,-12.32 -0.98,-7.4 7.64,14.82l-23.76 0c-1.2,-5.05 -1.67,-6.66 -1.4,-4.9 0.25,1.79 0.3,2.03 0.1,0.81 -0.29,-1.45 -0.49,-3.09 -0.64,-4.97 -0.14,-1.86 -0.32,-3.41 -0.51,-4.66 -0.47,-5.31 -1.37,-9.8 -2.72,-13.49 -1.35,-3.68 -3.33,-6.67 -6,-8.97 -2.65,-2.3 -5.93,-3.89 -9.82,-4.8 -3.9,-0.91 -8.58,-1.37 -14.04,-1.37l-21.46 0 0 42.35zm35.67 -57.64c6.37,0 10.95,-1.15 13.71,-3.45 3.87,-2.92 5.81,-7.67 5.81,-14.28 0,-8.04 -3.31,-13.2 -9.9,-15.48 -2.3,-0.64 -5.51,-0.93 -9.62,-0.93l-35.67 0 0 34.14 35.67 0zm110.52 -50.24c9.87,0 18.42,1.4 25.67,4.17 7.23,2.77 12.91,6.83 17.03,12.12 3.25,4.36 5.75,9.95 7.49,16.73 1.77,6.79 2.62,14.43 2.62,22.91 0,9.6 -1.39,18.07 -4.21,25.42 -2.84,7.35 -6.88,13.11 -12.15,17.27 -4.02,3.23 -8.94,5.71 -14.82,7.37 -5.85,1.69 -12.47,2.53 -19.84,2.53 -10.56,0 -19.72,-1.6 -27.48,-4.8 -7.74,-3.21 -13.65,-7.79 -17.71,-13.72 -6.18,-8.75 -9.26,-20.48 -9.26,-35.15 0,-10.49 1.34,-19.5 4.09,-27.04 2.72,-7.52 6.66,-13.35 11.83,-17.47 4.11,-3.4 9.33,-5.98 15.65,-7.71 6.32,-1.74 13.35,-2.63 21.09,-2.63zm0.22 14.14c-5.83,0 -11.02,1.08 -15.53,3.23 -4.53,2.16 -7.98,5.19 -10.38,9.11 -3.78,5.91 -5.66,15.09 -5.66,27.56 0,13.79 2.52,23.98 7.57,30.57 5.04,6.61 13.05,9.92 24,9.92 10.76,0 18.67,-3.31 23.71,-9.92 5.05,-6.59 7.57,-16.63 7.57,-30.13 0,-13.79 -2.47,-23.96 -7.44,-30.5 -5,-6.56 -12.94,-9.84 -23.84,-9.84zm70.47 78.53l48.58 0c4.65,0 8.35,-0.25 11.12,-0.74 2.79,-0.46 5,-1.2 6.69,-2.15 4.38,-2.82 6.59,-6.93 6.59,-12.35 0,-3.06 -0.74,-5.83 -2.23,-8.3 -1.47,-2.5 -3.53,-4.43 -6.15,-5.83 -1.5,-0.71 -3.36,-1.25 -5.61,-1.64 -2.25,-0.39 -4.75,-0.59 -7.55,-0.59l-20.65 0c-6.51,0 -11.88,-0.54 -16.11,-1.59 -4.24,-1.08 -7.65,-2.82 -10.24,-5.22 -3.14,-2.62 -5.59,-5.95 -7.28,-9.94 -1.69,-4 -2.54,-8.28 -2.54,-12.89 0,-6.69 1.64,-12.64 4.94,-17.83 3.31,-5.17 7.62,-8.75 12.94,-10.66 1.12,-0.41 2.37,-0.78 3.67,-1.07 1.32,-0.27 2.89,-0.52 4.68,-0.67 1.79,-0.17 3.89,-0.29 6.32,-0.34 2.4,-0.05 5.24,-0.05 8.5,-0.05l52.88 0 0 15.29 -47.49 0c-5.37,0 -9.36,0.1 -12,0.32 -2.63,0.19 -4.73,0.73 -6.3,1.61 -4.36,2.43 -6.54,6.67 -6.54,12.69 0,5.61 2.08,9.7 6.25,12.27 1.81,1.25 3.92,2.04 6.34,2.38 2.43,0.34 5.81,0.49 10.17,0.49l17.93 0c7.98,0 14.3,0.66 18.91,1.98 4.63,1.33 8.37,3.53 11.29,6.64 2.25,2.3 4.09,5.51 5.53,9.65 1.45,4.14 2.16,8.58 2.16,13.3 0,5.61 -1.2,10.78 -3.6,15.56 -2.38,4.75 -5.56,8.35 -9.53,10.8 -1.25,0.81 -2.62,1.47 -4.09,1.96 -1.49,0.51 -3.33,0.91 -5.54,1.22 -2.2,0.32 -4.77,0.54 -7.74,0.69 -2.96,0.15 -6.51,0.22 -10.63,0.22l-53.67 0 0 -15.21zm145.53 -91.86l24.25 0 44.36 107.07 -22.61 0 -10.92 -25.92 -45.78 0 -10.68 25.92 -22.76 0 44.14 -107.07zm-7.18 65.94l38.9 0 -19.52 -47.71 -19.38 47.71zm100.97 41.13l-17.93 0 0 -107.07 26.55 0 48.36 90.41 0 -90.41 17.88 0 0 107.07 -25.4 0 -49.46 -88.65 0 88.65zm125.59 -107.07l24.25 0 44.36 107.07 -22.61 0 -10.92 -25.92 -45.78 0 -10.68 25.92 -22.76 0 44.14 -107.07zm-7.18 65.94l38.9 0 -19.52 -47.71 -19.38 47.71zm254.76 -20.52l0 61.65 -47.57 0c-4.27,0 -8.04,-0.15 -11.3,-0.42 -3.28,-0.24 -6.19,-0.71 -8.72,-1.34 -2.54,-0.66 -4.85,-1.5 -6.9,-2.53 -2.06,-1.03 -4.05,-2.32 -5.96,-3.89 -5.41,-4.21 -9.55,-10.12 -12.42,-17.71 -2.86,-7.57 -4.28,-16.68 -4.28,-27.29 0,-10.38 1.42,-19.37 4.26,-26.99 2.84,-7.6 6.98,-13.57 12.37,-17.86 7.52,-6.02 18.84,-9.04 33.95,-9.04l46.57 0 0 15.29 -43.63 0c-11.39,0 -19.57,2.89 -24.57,8.67 -5,5.78 -7.49,15.04 -7.49,27.78 0,7.32 0.71,13.84 2.13,19.54 1.44,5.73 3.62,10.12 6.54,13.18 4.77,4.92 12.81,7.4 24.1,7.4l23.83 0 0 -31.16 -31.13 0 0 -15.28 50.22 0zm32.72 61.65l-19.08 0 0 -107.07 52.25 0c8.38,0 15.04,0.47 20.06,1.42 5,0.96 9.06,2.55 12.22,4.73 3.55,2.5 6.32,5.71 8.33,9.63 2.01,3.92 3.01,8.28 3.01,13.05 0,15.8 -8.96,26.75 -26.92,32.88 10.93,3.01 17.86,6.83 20.82,11.43 2.97,4.63 4.63,11.15 5.03,19.58 0.29,2.57 0.51,4.72 0.63,6.49 0.15,1.74 0.44,4.09 0.88,7.05 0.42,2.97 -1.12,-1.69 -4.62,-14.01 -3.53,-12.32 -0.98,-7.4 7.64,14.82l-23.76 0c-1.2,-5.05 -1.67,-6.66 -1.4,-4.9 0.25,1.79 0.3,2.03 0.1,0.81 -0.29,-1.45 -0.49,-3.09 -0.64,-4.97 -0.14,-1.86 -0.32,-3.41 -0.51,-4.66 -0.47,-5.31 -1.37,-9.8 -2.72,-13.49 -1.35,-3.68 -3.33,-6.67 -6,-8.97 -2.65,-2.3 -5.93,-3.89 -9.82,-4.8 -3.9,-0.91 -8.58,-1.37 -14.04,-1.37l-21.46 0 0 42.35zm35.67 -57.64c6.37,0 10.95,-1.15 13.71,-3.45 3.87,-2.92 5.81,-7.67 5.81,-14.28 0,-8.04 -3.31,-13.2 -9.9,-15.48 -2.3,-0.64 -5.51,-0.93 -9.62,-0.93l-35.67 0 0 34.14 35.67 0zm110.52 -50.24c9.87,0 18.42,1.4 25.67,4.17 7.23,2.77 12.91,6.83 17.03,12.12 3.25,4.36 5.75,9.95 7.49,16.73 1.77,6.79 2.62,14.43 2.62,22.91 0,9.6 -1.39,18.07 -4.21,25.42 -2.84,7.35 -6.88,13.11 -12.15,17.27 -4.02,3.23 -8.94,5.71 -14.82,7.37 -5.85,1.69 -12.47,2.53 -19.84,2.53 -10.56,0 -19.72,-1.6 -27.48,-4.8 -7.74,-3.21 -13.65,-7.79 -17.71,-13.72 -6.18,-8.75 -9.26,-20.48 -9.26,-35.15 0,-10.49 1.34,-19.5 4.09,-27.04 2.72,-7.52 6.66,-13.35 11.83,-17.47 4.11,-3.4 9.33,-5.98 15.65,-7.71 6.32,-1.74 13.35,-2.63 21.09,-2.63zm0.22 14.14c-5.83,0 -11.02,1.08 -15.53,3.23 -4.53,2.16 -7.98,5.19 -10.38,9.11 -3.78,5.91 -5.66,15.09 -5.66,27.56 0,13.79 2.52,23.98 7.57,30.57 5.04,6.61 13.05,9.92 24,9.92 10.76,0 18.67,-3.31 23.71,-9.92 5.05,-6.59 7.57,-16.63 7.57,-30.13 0,-13.79 -2.47,-23.96 -7.44,-30.5 -5,-6.56 -12.94,-9.84 -23.84,-9.84zm85.54 51.39c0,5.68 0.54,10.21 1.57,13.52 1.05,3.33 2.84,6.22 5.31,8.65 2.55,2.2 5.66,3.92 9.33,5.09 3.7,1.2 7.55,1.81 11.57,1.81 5.88,0 11.02,-1.02 15.38,-3.08 4.38,-2.06 7.47,-5.05 9.23,-8.99 0.81,-1.72 1.4,-3.95 1.77,-6.71 0.34,-2.75 0.54,-6.18 0.54,-10.29l0 -64.72 19 0 0 63.49c0,8.87 -0.9,15.93 -2.69,21.22 -1.79,5.29 -4.6,9.55 -8.43,12.81 -4.31,3.57 -9.3,6.19 -15.01,7.86 -5.68,1.64 -12.42,2.47 -20.23,2.47 -17.03,0 -29.32,-3.77 -36.89,-11.26 -1.82,-1.91 -3.34,-3.82 -4.56,-5.76 -1.2,-1.91 -2.18,-4.07 -2.94,-6.44 -0.73,-2.4 -1.25,-5.15 -1.57,-8.26 -0.32,-3.11 -0.46,-6.76 -0.46,-10.97l0 -65.16 19.08 0 0 64.72zm107.14 42.35l-19.11 0 0 -107.07 53.48 0c4.82,0 8.91,0.1 12.27,0.35 3.35,0.24 6.17,0.73 8.47,1.51 2.31,0.76 4.31,1.74 6.03,2.94 1.71,1.2 3.5,2.75 5.39,4.66 6.24,6.83 9.38,15.01 9.38,24.54 0,5.66 -1.01,10.88 -3.04,15.65 -2.03,4.78 -4.87,8.68 -8.5,11.69 -1.54,1.25 -3.06,2.33 -4.55,3.21 -1.52,0.88 -3.16,1.59 -4.95,2.1 -1.82,0.54 -3.87,0.89 -6.22,1.08 -2.36,0.2 -5.05,0.3 -8.11,0.3l-40.54 0 0 39.04zm34.73 -54.33c3.38,0 6.22,-0.24 8.5,-0.76 2.28,-0.49 4.14,-1.49 5.64,-2.99 1.81,-1.42 3.21,-3.57 4.18,-6.44 0.98,-2.87 1.47,-5.98 1.47,-9.33 0,-4.17 -0.83,-7.74 -2.54,-10.78 -1.69,-3.01 -4.14,-5.05 -7.35,-6.1 -2.11,-0.71 -5.27,-1.05 -9.48,-1.05l-35.15 0 0 37.45 34.73 0z"/>
 </g>
</svg>
